<?xml version="1.0" encoding="utf-8"?>
<!-- Generator: Adobe Illustrator 27.0.1, SVG Export Plug-In . SVG Version: 6.00 Build 0)  -->
<svg version="1.1" id="Calque_1" xmlns="http://www.w3.org/2000/svg" xmlns:xlink="http://www.w3.org/1999/xlink" x="0px" y="0px"
	 viewBox="0 0 514.2 210.7" style="enable-background:new 0 0 514.2 210.7;" xml:space="preserve">
<style type="text/css">
	.st0{fill:#242424;}
	.st1{fill:url(#SVGID_1_);}
	.st2{fill:url(#SVGID_00000104670840098640786260000014008270947677382580_);}
	.st3{fill:url(#SVGID_00000183237281458211600780000014484124927473739961_);}
	.st4{fill:url(#SVGID_00000112634916120244862710000016126408563646140564_);}
	.st5{fill:url(#SVGID_00000045585367222824437250000009285933275411412363_);}
	.st6{fill:url(#SVGID_00000020384574239879107560000006225501758650182548_);}
</style>
<path class="st0" d="M235.7,91.4v10.9h-13.3v21.7H233V135h-10.6v31.6h-11.8V91.4H235.7z M263,151.8h-12.8l-2,14.8h-11.2l12.7-75.2
	h14.8l12.8,75.2h-12L263,151.8L263,151.8z M251.6,141.9h10.3l-5-34.6h-0.2L251.6,141.9L251.6,141.9z M316,148.9c0,3.6-0.5,6.6-1.3,9
	c-0.9,2.4-2.1,4.4-3.7,5.9s-3.4,2.6-5.5,3.2s-4.4,1-6.8,1s-4.8-0.3-6.9-1c-2.1-0.6-3.9-1.7-5.5-3.2c-1.6-1.5-2.8-3.4-3.6-5.9
	c-0.9-2.4-1.3-5.4-1.3-9v-39.7c0-3.5,0.4-6.5,1.3-8.9c0.9-2.4,2.1-4.4,3.6-5.9s3.4-2.6,5.5-3.2c2.1-0.6,4.4-1,6.9-1s4.7,0.3,6.8,1
	c2.1,0.6,4,1.7,5.5,3.2c1.6,1.5,2.8,3.5,3.7,5.9c0.9,2.4,1.3,5.4,1.3,8.9v5.2l-11.8,2.5v-7.6c0-2.9-0.5-5-1.4-6.1
	c-0.9-1.1-2.3-1.7-4.2-1.7s-3.1,0.6-4.1,1.7s-1.4,3.2-1.4,6.1v39.7c0,3,0.5,5.1,1.4,6.2c0.9,1.1,2.3,1.7,4.1,1.7s3.3-0.6,4.2-1.7
	s1.4-3.2,1.4-6.2v-6.7l11.8-2.5V148.9z M352.6,91.4v10.9h-10.2v64.2h-11.8v-64.2h-10.2V91.4L352.6,91.4L352.6,91.4z M354.3,109.1
	c0-3.5,0.4-6.5,1.3-8.9c0.9-2.4,2.1-4.4,3.6-5.9s3.4-2.6,5.5-3.2c2.1-0.6,4.4-1,6.9-1s4.7,0.3,6.8,1c2.1,0.6,4,1.7,5.5,3.2
	c1.6,1.5,2.8,3.5,3.7,5.9c0.9,2.4,1.3,5.4,1.3,8.9v39.7c0,3.6-0.5,6.6-1.3,9c-0.9,2.4-2.1,4.4-3.7,5.9s-3.4,2.6-5.5,3.2
	s-4.4,1-6.8,1s-4.8-0.3-6.9-1c-2.1-0.6-3.9-1.7-5.5-3.2c-1.6-1.5-2.8-3.4-3.6-5.9c-0.9-2.4-1.3-5.4-1.3-9V109.1z M377.2,109.1
	c0-2.9-0.5-5-1.4-6.1c-0.9-1.1-2.3-1.7-4.2-1.7s-3.1,0.6-4.1,1.7s-1.4,3.2-1.4,6.1v39.7c0,2.9,0.5,5,1.4,6.1
	c0.9,1.1,2.3,1.7,4.1,1.7s3.3-0.6,4.2-1.7c0.9-1.1,1.4-3.2,1.4-6.1V109.1z M417.5,166.6v-22.8c0-5.2-1.9-7.8-5.6-7.8h-3.3v30.6
	h-11.8V91.4H413c2.3,0,4.4,0.2,6.4,0.7c2,0.5,3.7,1.3,5.2,2.5s2.6,2.8,3.4,4.8c0.8,2,1.2,4.6,1.2,7.8v11.3c0,2.6-0.6,5-1.8,7.2
	c-1.2,2.2-3.1,3.8-5.8,4.7v0.2c1.1,0.4,2.1,0.9,3,1.5c0.9,0.6,1.7,1.3,2.4,2.3c0.7,1,1.2,2.2,1.6,3.8c0.4,1.5,0.6,3.5,0.6,5.9v22.6
	L417.5,166.6L417.5,166.6z M408.6,125.2h3.6c1.4,0,2.6-0.4,3.7-1.2c1.1-0.8,1.7-2.4,1.7-4.9v-11.5c0-2-0.5-3.4-1.3-4.3
	c-0.9-0.9-2.2-1.3-3.9-1.3h-3.8L408.6,125.2L408.6,125.2z M461.8,91.4H473l-13.5,47.7v27.5h-11.8v-27.5l-13.5-47.7h12.6l7.7,34.2
	L461.8,91.4L461.8,91.4z"/>
<linearGradient id="SVGID_1_" gradientUnits="userSpaceOnUse" x1="211.34" y1="150.575" x2="321.9" y2="150.575" gradientTransform="matrix(1 0 0 -1 0 212.315)">
	<stop  offset="0" style="stop-color:#2A3982"/>
	<stop  offset="1" style="stop-color:#31B9CF"/>
</linearGradient>
<path class="st1" d="M224.6,43.5v6.8h-6v8.6h4.5v6.8h-4.5v14.2h-7.3V43.5H224.6z M245.1,43.5v29.6h4.8v6.8h-12.1V43.5H245.1z
	 M261.6,52.5c0-1.8,0.2-3.3,0.6-4.5c0.4-1.2,1-2.2,1.8-3s1.7-1.3,2.8-1.6c1.1-0.3,2.3-0.5,3.7-0.5s2.5,0.2,3.6,0.5
	c1.1,0.3,2,0.9,2.8,1.6c0.8,0.8,1.4,1.8,1.9,3c0.5,1.2,0.7,2.7,0.7,4.5V71c0,1.8-0.2,3.3-0.7,4.5c-0.5,1.2-1.1,2.2-1.9,3
	s-1.7,1.3-2.8,1.6s-2.3,0.5-3.6,0.5c-1.4,0-2.6-0.2-3.7-0.5c-1.1-0.3-2-0.9-2.8-1.6s-1.4-1.8-1.8-3s-0.6-2.7-0.6-4.5V52.5z
	 M272.2,52.5c0-0.9-0.1-1.6-0.3-2s-0.7-0.6-1.4-0.6s-1.1,0.2-1.4,0.6c-0.2,0.4-0.3,1.1-0.3,2V71c0,0.9,0.1,1.6,0.3,2
	c0.2,0.4,0.7,0.6,1.4,0.6s1.1-0.2,1.4-0.6s0.3-1.1,0.3-2V52.5z M310.3,43.5l2.3,20.1l1.7-20.1h7.6l-4.4,36.4h-8.2l-2.5-24.1
	l-2.5,24.1H296l-4.4-36.4h7.4l1.8,20.3l2.3-20.3L310.3,43.5L310.3,43.5z"/>
<g>
	
		<linearGradient id="SVGID_00000010284777755022941200000006322406394874465983_" gradientUnits="userSpaceOnUse" x1="53.77" y1="143.235" x2="53.77" y2="48.575" gradientTransform="matrix(1 0 0 -1 0 212.315)">
		<stop  offset="0" style="stop-color:#2A3982"/>
		<stop  offset="1" style="stop-color:#31B9CF"/>
	</linearGradient>
	<path style="fill:url(#SVGID_00000010284777755022941200000006322406394874465983_);" d="M56.5,157.8V52.4
		c-9.3,0-11.8,2.3-15.3,10.3v95.2c0,7.9,6.4,14.2,14.2,14.2h10.9C58.4,168.5,56.5,167.1,56.5,157.8L56.5,157.8z"/>
	
		<linearGradient id="SVGID_00000080178092389079192110000016748085433050994075_" gradientUnits="userSpaceOnUse" x1="142.63" y1="161.595" x2="49.43" y2="161.595" gradientTransform="matrix(1 0 0 -1 0 212.315)">
		<stop  offset="0" style="stop-color:#2A3982"/>
		<stop  offset="1" style="stop-color:#31B9CF"/>
	</linearGradient>
	<path style="fill:url(#SVGID_00000080178092389079192110000016748085433050994075_);" d="M149.2,38.5H55.4
		c-7.9,0-14.2,6.4-14.2,14.2v10.1c3.6-8,6.9-10.5,16.2-10.5h101.7C159.1,43.1,157.2,42.1,149.2,38.5L149.2,38.5z"/>
	
		<linearGradient id="SVGID_00000026165605209580505190000001237832987883412621_" gradientUnits="userSpaceOnUse" x1="161.72" y1="71.165" x2="161.72" y2="165.425" gradientTransform="matrix(1 0 0 -1 0 212.315)">
		<stop  offset="0" style="stop-color:#2A3982"/>
		<stop  offset="1" style="stop-color:#31B9CF"/>
	</linearGradient>
	<path style="fill:url(#SVGID_00000026165605209580505190000001237832987883412621_);" d="M160.5,38.5h-11.8c8,3.6,10,4.7,10,14
		v105.2c9.3,0,12.5-3.6,16.1-11.6V52.8C174.8,44.9,168.4,38.5,160.5,38.5L160.5,38.5z"/>
	
		<linearGradient id="SVGID_00000044150289979887410770000006120306114714427050_" gradientUnits="userSpaceOnUse" x1="73" y1="53.145" x2="166.47" y2="53.145" gradientTransform="matrix(1 0 0 -1 0 212.315)">
		<stop  offset="0" style="stop-color:#2A3982"/>
		<stop  offset="1" style="stop-color:#31B9CF"/>
	</linearGradient>
	<path style="fill:url(#SVGID_00000044150289979887410770000006120306114714427050_);" d="M159.1,157.4H56.5
		c0,9.3,1.8,11.1,9.8,14.7h94.2c7.9,0,14.2-6.4,14.2-14.2v-11.7C171.2,154.2,168.4,157.4,159.1,157.4L159.1,157.4z"/>
	
		<linearGradient id="SVGID_00000010286569567675402440000006674205174447003053_" gradientUnits="userSpaceOnUse" x1="107.965" y1="61.2119" x2="107.965" y2="152.7547" gradientTransform="matrix(1 0 0 -1 0 212.315)">
		<stop  offset="0" style="stop-color:#2A3982"/>
		<stop  offset="1" style="stop-color:#31B9CF"/>
	</linearGradient>
	<path style="fill:url(#SVGID_00000010286569567675402440000006674205174447003053_);" d="M131.4,67.3c0-2.6-0.5-5.1-0.5-7.6
		c-16.8-2.4-33.1,15.9-33.7,34.1H84.5v7.9H98c0,15.3,2.8,27.2-13.4,30.1v7.6c15.7-2.3,21.9-11.7,21.1-26.4h3.7
		c0.2,19.5-6.5,26.9-24.8,30.9c0,2.4,0,4.8,0,7.2c20.6,0.6,34.1-18.2,33.8-37.2h12.5v-8h-13v-4.3h13v-7.8h-13.2
		c0.3-8.9,5-13.3,13.2-14.6v-7.6c-11.2-0.3-18.7,7-20.9,22.4h-4.3C108.2,72.8,119.5,68,131.4,67.3L131.4,67.3z M109.4,106.3h-3.8
		v-4.5h3.8V106.3z M95.9,113.5H84.6v-7.2h11.4V113.5z"/>
</g>
</svg>
